<?xml version="1.0" encoding="UTF-8" standalone="no"?>
<!-- Created with Inkscape (http://www.inkscape.org/) -->

<svg
        width="1923.0542"
        height="3450.9233"
        viewBox="0 0 508.80809 913.0568"
        version="1.1"
        id="svg5"
        xml:space="preserve"
        xmlns="http://www.w3.org/2000/svg"><defs
     id="defs2" />
    <g
            id="layer1"
            transform="translate(0.80807871)"><g
       id="g18283"
       transform="matrix(1.1241219,0,0,1.1241219,0.37418376,0)"
       style="stroke-width:0.235369"><rect
         class="bg"
         id="bg"
         x="0"
         y="0"
         width="406.12"
         height="812.23999"
         fill="#be6f6f"
         style="stroke-width:0.0553985" /><path
            d="m 451.57542,0 10e-6,812.14987 H -1.0517209 L 0,0 c 39.396042,0 288.06215,0 451.57542,0 z"
            fill="#163652"
            id="path18231"
            style="stroke-width:0.0553984"/><path
            d="M 0,0 V 0 L 15.04,29.01 45.124444,0 V 0 L 70.12,29.01 90.248889,0 V 0 L 116.25,43 135.37333,0 V 0 L 150.41,29.01 180.49778,0 V 0 L 195.54,29.01 225.62222,0 V 0 L 257.62,43 270.74667,0 V 0 L 285.79,29.01 315.87111,0 V 0 L 341.87,29.01 360.99556,0 V 0 L 392,50 406.12,0 v 0 l 20,44 25.12444,-44 V 812.24 H 0 Z"
            fill="#1a3d59"
            id="path18233"
            style="stroke-width:0.0553985"/><path
            d="M 0,58.017143 V 58.02 l 15.04,41 30.084444,-41 v 0 L 60.17,87.03 90.248889,58.02 v 0 l 15.041111,47 30.08333,-47 v 0 L 151.37,87.03 180.49778,58.02 v 0 L 210.5,87.03 225.62222,58.02 v 0 L 254.62,87.03 270.74667,58.02 v 0 l 15.04333,40 30.08111,-40 v 0 L 330.91,87.03 360.99556,58.02 v 0 L 377,87.03 406.12,58.02 v 0 l 15.04,31 30.08444,-31 V 812.24 H 0 V 58.02 Z"
            fill="#1e4460"
            id="path18235"
            style="stroke-width:0.0553985"/><path
            d="m 0,116.03429 v -0.004 l 15.04,29.01 30.084444,-29.01 v 0 L 60.17,145.04 90.248889,116.03 v 0 l 29.001111,42 16.12333,-42 v 0 l 19.99667,39 25.12778,-39 v 0 l 27.00222,51 18.12222,-51 v 0 l 19.99778,29.01 25.12667,-29.01 v 0 l 15.04333,30 30.08111,-30 v 0 l 17.99889,29.01 27.12556,-29.01 v 0 l 17.00444,43 28.12,-43 v 0 l 15.04,39 30.08444,-39 V 812.24 H 0 V 116.03 Z"
            fill="#224b67"
            id="path18237"
            style="stroke-width:0.0553985"/><path
            d="m 0,174.05143 v -0.001 l 29,29.01 16.124444,-29.01 v 0 l 29.995556,46 15.128889,-46 v 0 L 105.29,203.06 135.37333,174.05 v 0 l 15.03667,29.01 30.08778,-29.01 v 0 l 15.04222,29.01 30.08222,-29.01 v 0 l 15.03778,29.01 30.08667,-29.01 v 0 l 15.04333,29.01 30.08111,-29.01 v 0 l 23.99889,29.01 21.12556,-29.01 v 0 l 31.00444,56 14.12,-56 v 0 l 23,55 22.12444,-55 V 812.24 H 0 V 174.05 Z"
            fill="#26526e"
            id="path18239"
            style="stroke-width:0.0553985"/><path
            d="m 0,232.06857 v 0.001 l 15.04,29.01 30.084444,-29.01 v 0 L 60.17,261.08 90.248889,232.07 v 0 L 108.25,261.08 135.37333,232.07 v 0 l 15.03667,54 30.08778,-54 v 0 L 205.5,261.08 225.62222,232.07 v 0 l 15.03778,29.01 30.08667,-29.01 v 0 l 15.04333,30 30.08111,-30 v 0 l 22.99889,32 22.12556,-32 v 0 l 15.04444,29.01 30.08,-29.01 v 0 l 15.04,40 30.08444,-40 V 812.24 H 0 V 232.07 Z"
            fill="#2a5975"
            id="path18241"
            style="stroke-width:0.0553985"/><path
            d="m 0,290.08571 v 0.004 l 27,29 18.124444,-29 v 0 l 15.045556,29 30.078889,-29 v 0 l 18.001111,31 27.12333,-31 v 0 l 15.03667,29 30.08778,-29 v 0 l 15.04222,57 30.08222,-57 v 0 l 16.99778,30 28.12667,-30 v 0 l 15.04333,29 30.08111,-29 v 0 l 24.99889,29 20.12556,-29 v 0 l 28.00444,29 17.12,-29 v 0 l 32,29 13.12444,-29 V 812.24 H 0 V 290.09 Z"
            fill="#2e607c"
            id="path18243"
            style="stroke-width:0.0553985"/><path
            d="M 0,348.10286 V 348.1 l 15.04,38 30.084444,-38 v 0 l 27.995556,48 17.128889,-48 v 0 l 18.001111,37 27.12333,-37 v 0 l 15.03667,54 30.08778,-54 v 0 l 15.04222,44 30.08222,-44 v 0 l 16.99778,52 28.12667,-52 v 0 l 21.00333,36 24.12111,-36 v 0 l 15.03889,48 30.08556,-48 v 0 l 15.04444,35 30.08,-35 v 0 l 30,52 15.12444,-52 V 812.24 H 0 V 348.1 Z"
            fill="#326783"
            id="path18245"
            style="stroke-width:0.0553985"/><path
            d="m 0,406.12 v 0 l 27,45 18.124444,-45 v 0 L 64.12,435.13 90.248889,406.12 v 0 L 105.29,435.13 135.37333,406.12 v 0 l 31.99667,36 13.12778,-36 v 0 l 18.00222,47 27.12222,-47 v 0 l 26.99778,54 18.12667,-54 v 0 l 15.04333,29.01 30.08111,-29.01 v 0 l 15.03889,55 30.08556,-55 v 0 L 394,435.13 406.12,406.12 v 0 l 15.04,32 30.08444,-32 V 812.24 H 0 Z"
            fill="#366e8a"
            id="path18247"
            style="stroke-width:0.0553985"/><path
            d="m 0,464.13714 v 0.003 l 29,29.01 16.124444,-29.01 v 0 L 62.12,493.15 90.248889,464.14 v 0 L 105.29,493.15 135.37333,464.14 v 0 l 31.99667,34 13.12778,-34 v 0 L 199.5,493.15 225.62222,464.14 v 0 l 30.99778,54 14.12667,-54 v 0 l 21.00333,55 24.12111,-55 v 0 l 15.03889,46 30.08556,-46 v 0 l 15.04444,47 30.08,-47 v 0 l 15.04,29.01 30.08444,-29.01 v 348.1 H 0 v -348.1 z"
            fill="#3a7591"
            id="path18249"
            style="stroke-width:0.0553985"/><path
            d="m 0,522.15429 v -0.004 l 20,45 25.124444,-45 v 0 l 27.995556,34 17.128889,-34 v 0 L 105.29,551.16 135.37333,522.15 v 0 l 32.99667,29.01 12.12778,-29.01 v 0 l 19.00222,42 26.12222,-42 v 0 l 15.03778,40 30.08667,-40 v 0 l 24.00333,29.01 21.12111,-29.01 v 0 l 25.99889,29.01 19.12556,-29.01 v 0 L 392,551.16 406.12,522.15 v 0 l 23,29.01 22.12444,-29.01 V 812.24 H 0 V 522.15 Z"
            fill="#3e7c98"
            id="path18251"
            style="stroke-width:0.0553985"/><path
            d="m 0,580.17143 v -10e-4 l 26,47 19.124444,-47 v 0 l 15.045556,37 30.078889,-37 v 0 L 119.25,609.18 135.37333,580.17 v 0 l 15.03667,38 30.08778,-38 v 0 l 15.04222,45 30.08222,-45 v 0 l 20.99778,29.01 24.12667,-29.01 v 0 l 15.04333,29.01 30.08111,-29.01 v 0 l 15.03889,29.01 30.08556,-29.01 v 0 l 23.00444,53 22.12,-53 v 0 l 15.04,29.01 30.08444,-29.01 V 812.24 H 0 V 580.17 Z"
            fill="#42839f"
            id="path18253"
            style="stroke-width:0.0553985"/><path
            d="m 0,638.18857 v 10e-4 l 15.04,45 30.084444,-45 v 0 L 60.17,667.2 90.248889,638.19 v 0 L 105.29,667.2 135.37333,638.19 v 0 L 162.37,667.2 180.49778,638.19 v 0 L 212.5,667.2 225.62222,638.19 v 0 l 22.99778,47 22.12667,-47 v 0 L 292.75,667.2 315.87111,638.19 v 0 l 15.03889,54 30.08556,-54 v 0 L 376.04,667.2 406.12,638.19 v 0 l 15.04,42 30.08444,-42 V 812.24 H 0 V 638.19 Z"
            fill="#468aa6"
            id="path18255"
            style="stroke-width:0.0553985"/><path
            d="m 0,696.20571 v 0.004 l 15.04,53 30.084444,-53 v 0 l 15.045556,29 30.078889,-29 v 0 l 15.041111,29 30.08333,-29 v 0 l 28.99667,31 16.12778,-31 v 0 l 27.00222,42 18.12222,-42 v 0 l 15.03778,29 30.08667,-29 v 0 l 15.04333,57 30.08111,-57 v 0 l 21.99889,34 23.12556,-34 v 0 l 29.00444,47 16.12,-47 v 0 l 15.04,29 30.08444,-29 V 812.24 H 0 V 696.21 Z"
            fill="#4a91ad"
            id="path18257"
            style="stroke-width:0.0553985"/><path
            d="m 0,754.22286 v -0.003 l 16,29.01 29.124444,-29.01 v 0 l 15.045556,55 30.078889,-55 v 0 L 106.25,783.23 135.37333,754.22 v 0 l 32.99667,52 12.12778,-52 v 0 L 208.5,783.23 225.62222,754.22 v 0 l 15.03778,29.01 30.08667,-29.01 v 0 l 15.04333,29.01 30.08111,-29.01 v 0 l 22.99889,33 22.12556,-33 v 0 l 15.04444,52 30.08,-52 v 0 l 15.04,39 30.08444,-39 v 58.02 H 0 v -58.02 z"
            fill="#4e98b4"
            id="path18259"
            style="stroke-width:0.0553985"/></g></g></svg>
